G04 #@! TF.GenerationSoftware,KiCad,Pcbnew,5.0.0-rc2-dev-unknown*
G04 #@! TF.CreationDate,2018-06-18T21:32:58+02:00*
G04 #@! TF.ProjectId,thermometer-bausatz,746865726D6F6D657465722D62617573,rev?*
G04 #@! TF.SameCoordinates,PX3938700PY9896800*
G04 #@! TF.FileFunction,Copper,L1,Top,Signal*
G04 #@! TF.FilePolarity,Positive*
%FSLAX46Y46*%
G04 Gerber Fmt 4.6, Leading zero omitted, Abs format (unit mm)*
G04 Created by KiCad (PCBNEW 5.0.0-rc2-dev-unknown) date Mon Jun 18 21:32:58 2018*
%MOMM*%
%LPD*%
G01*
G04 APERTURE LIST*
%ADD10C,2.000000*%
%ADD11C,0.100000*%
%ADD12R,2.000000X2.000000*%
%ADD13C,4.000500*%
%ADD14R,1.727200X1.727200*%
%ADD15O,1.727200X1.727200*%
%ADD16C,0.600000*%
%ADD17C,0.500000*%
%ADD18C,0.250000*%
%ADD19C,0.254000*%
G04 APERTURE END LIST*
D10*
X9150000Y5870000D03*
D11*
G36*
X9997147Y4737595D02*
X8017595Y5022853D01*
X8302853Y7002405D01*
X10282405Y6717147D01*
X9997147Y4737595D01*
X9997147Y4737595D01*
G37*
D10*
X11664032Y5507723D03*
X18810000Y27030000D03*
D11*
G36*
X18908651Y25619231D02*
X17399231Y26931349D01*
X18711349Y28440769D01*
X20220769Y27128651D01*
X18908651Y25619231D01*
X18908651Y25619231D01*
G37*
D10*
X20726962Y25363610D03*
X27690000Y34720000D03*
D11*
G36*
X27388730Y33338249D02*
X26308249Y35021270D01*
X27991270Y36101751D01*
X29071751Y34418730D01*
X27388730Y33338249D01*
X27388730Y33338249D01*
G37*
D10*
X29062210Y32582563D03*
X38370000Y39600000D03*
D11*
G36*
X37690861Y38359528D02*
X37129528Y40279139D01*
X39049139Y40840472D01*
X39610472Y38920861D01*
X37690861Y38359528D01*
X37690861Y38359528D01*
G37*
D10*
X39082893Y37162096D03*
D12*
X50000000Y41270000D03*
D10*
X50000000Y38730000D03*
X61630000Y39600000D03*
D11*
G36*
X60388345Y38923027D02*
X60953027Y40841655D01*
X62871655Y40276973D01*
X62306973Y38358345D01*
X60388345Y38923027D01*
X60388345Y38923027D01*
G37*
D10*
X60912853Y37163343D03*
X72310000Y34720000D03*
D11*
G36*
X70927725Y34421142D02*
X72011142Y36102275D01*
X73692275Y35018858D01*
X72608858Y33337725D01*
X70927725Y34421142D01*
X70927725Y34421142D01*
G37*
D10*
X70934061Y32584961D03*
X81190000Y27030000D03*
D11*
G36*
X79779406Y27131113D02*
X81291113Y28440594D01*
X82600594Y26928887D01*
X81088887Y25619406D01*
X79779406Y27131113D01*
X79779406Y27131113D01*
G37*
D10*
X79270132Y25366958D03*
X87540000Y17140000D03*
D11*
G36*
X86215345Y17635268D02*
X88035268Y18464655D01*
X88864655Y16644732D01*
X87044732Y15815345D01*
X86215345Y17635268D01*
X86215345Y17635268D01*
G37*
D10*
X85228698Y16086679D03*
X90850000Y5870000D03*
D11*
G36*
X89719075Y6719122D02*
X91699122Y7000925D01*
X91980925Y5020878D01*
X90000878Y4739075D01*
X89719075Y6719122D01*
X89719075Y6719122D01*
G37*
D10*
X88335340Y5512111D03*
D13*
X80000000Y6000000D03*
X80000000Y17000000D03*
D14*
X47460000Y3000000D03*
D15*
X47460000Y5540000D03*
X50000000Y3000000D03*
X50000000Y5540000D03*
X52540000Y3000000D03*
X52540000Y5540000D03*
D10*
X12460000Y17140000D03*
D11*
G36*
X12952955Y15814483D02*
X11134483Y16647045D01*
X11967045Y18465517D01*
X13785517Y17632955D01*
X12952955Y15814483D01*
X12952955Y15814483D01*
G37*
D10*
X14769460Y16082647D03*
D16*
X47000000Y33500000D03*
X66000000Y27000000D03*
X51500000Y18500000D03*
X57000000Y21500000D03*
X96000000Y3500000D03*
X4000000Y4000000D03*
X50000000Y46000000D03*
X33000000Y33500000D03*
X70000000Y27000000D03*
X59500000Y33500000D03*
X55000000Y10000000D03*
X65500000Y21500000D03*
X51000000Y14000000D03*
X56500000Y14500000D03*
X20540000Y16460000D03*
X46000000Y27500000D03*
X52000000Y35500000D03*
X53500000Y36500000D03*
X46600000Y39600000D03*
X30000000Y38000000D03*
X26000000Y32000000D03*
X54500000Y30500000D03*
X91000000Y9500000D03*
X56000000Y30500000D03*
X62500000Y34500000D03*
X57500000Y30500000D03*
D17*
X56000000Y14000000D02*
X51000000Y14000000D01*
X56000000Y14000000D02*
X56500000Y14500000D01*
D18*
X53000000Y36500000D02*
X52000000Y35500000D01*
X53500000Y36500000D02*
X53000000Y36500000D01*
X46600000Y39600000D02*
X49130000Y39600000D01*
X49130000Y39600000D02*
X50000000Y38730000D01*
X28484429Y36484429D02*
X30000000Y38000000D01*
X27690000Y34720000D02*
X28484429Y35514429D01*
X28484429Y35514429D02*
X28484429Y36484429D01*
X26000000Y32000000D02*
X26000000Y33030000D01*
X26000000Y33030000D02*
X27690000Y34720000D01*
X60100000Y39600000D02*
X61630000Y39600000D01*
X54500000Y34000000D02*
X60100000Y39600000D01*
X54500000Y30500000D02*
X54500000Y34000000D01*
X88590984Y7090984D02*
X91000000Y9500000D01*
X88500000Y7090984D02*
X88590984Y7090984D01*
X88335340Y5512111D02*
X88335340Y6926324D01*
X88335340Y6926324D02*
X88500000Y7090984D01*
X60249510Y36500000D02*
X60912853Y37163343D01*
X58000000Y36500000D02*
X60249510Y36500000D01*
X56000000Y34500000D02*
X58000000Y36500000D01*
X56000000Y30500000D02*
X56000000Y34500000D01*
X57000000Y34500000D02*
X62500000Y34500000D01*
X56500000Y34000000D02*
X57000000Y34500000D01*
X56500000Y31500000D02*
X56500000Y34000000D01*
X57500000Y30500000D02*
X56500000Y31500000D01*
D19*
G36*
X57082144Y49373943D02*
X64064304Y47877766D01*
X70746994Y45384225D01*
X76930865Y41993070D01*
X82616448Y37703946D01*
X87703946Y32616448D01*
X91993070Y26930865D01*
X95384225Y20746994D01*
X97877766Y14064304D01*
X99373943Y7082144D01*
X99863742Y127000D01*
X136258Y127000D01*
X478645Y4988903D01*
X7380427Y4988903D01*
X7399293Y4865250D01*
X7441921Y4747654D01*
X7506671Y4640633D01*
X7591055Y4548301D01*
X7691832Y4474205D01*
X7805127Y4421194D01*
X7926587Y4391305D01*
X9906139Y4106047D01*
X10031097Y4100427D01*
X10154750Y4119293D01*
X10272346Y4161921D01*
X10379367Y4226671D01*
X10471699Y4311055D01*
X10504224Y4355292D01*
X10621780Y4237736D01*
X10889569Y4058805D01*
X11187120Y3935555D01*
X11502999Y3872723D01*
X11825065Y3872723D01*
X12140944Y3935555D01*
X12438495Y4058805D01*
X12706284Y4237736D01*
X12934019Y4465471D01*
X13112950Y4733260D01*
X13236200Y5030811D01*
X13299032Y5346690D01*
X13299032Y5540000D01*
X45954149Y5540000D01*
X45983084Y5246223D01*
X46068775Y4963736D01*
X46207931Y4703394D01*
X46395203Y4475203D01*
X46403265Y4468586D01*
X46352220Y4453102D01*
X46241906Y4394137D01*
X46145215Y4314785D01*
X46065863Y4218094D01*
X46006898Y4107780D01*
X45970588Y3988082D01*
X45958328Y3863600D01*
X45958328Y2136400D01*
X45970588Y2011918D01*
X46006898Y1892220D01*
X46065863Y1781906D01*
X46145215Y1685215D01*
X46241906Y1605863D01*
X46352220Y1546898D01*
X46471918Y1510588D01*
X46596400Y1498328D01*
X48323600Y1498328D01*
X48448082Y1510588D01*
X48567780Y1546898D01*
X48678094Y1605863D01*
X48774785Y1685215D01*
X48854137Y1781906D01*
X48913102Y1892220D01*
X48928586Y1943265D01*
X48935203Y1935203D01*
X49163394Y1747931D01*
X49423736Y1608775D01*
X49706223Y1523084D01*
X49926381Y1501400D01*
X50073619Y1501400D01*
X50293777Y1523084D01*
X50576264Y1608775D01*
X50836606Y1747931D01*
X51064797Y1935203D01*
X51252069Y2163394D01*
X51270000Y2196940D01*
X51287931Y2163394D01*
X51475203Y1935203D01*
X51703394Y1747931D01*
X51963736Y1608775D01*
X52246223Y1523084D01*
X52466381Y1501400D01*
X52613619Y1501400D01*
X52833777Y1523084D01*
X53116264Y1608775D01*
X53376606Y1747931D01*
X53604797Y1935203D01*
X53792069Y2163394D01*
X53931225Y2423736D01*
X54016916Y2706223D01*
X54045851Y3000000D01*
X54016916Y3293777D01*
X53931225Y3576264D01*
X53792069Y3836606D01*
X53604797Y4064797D01*
X53376606Y4252069D01*
X53336567Y4273470D01*
X53550293Y4433146D01*
X53746817Y4651512D01*
X53896964Y4904022D01*
X53994963Y5180973D01*
X53874464Y5413000D01*
X52667000Y5413000D01*
X52667000Y5393000D01*
X52413000Y5393000D01*
X52413000Y5413000D01*
X52393000Y5413000D01*
X52393000Y5667000D01*
X52413000Y5667000D01*
X52413000Y6873817D01*
X52667000Y6873817D01*
X52667000Y5667000D01*
X53874464Y5667000D01*
X53994963Y5899027D01*
X53896964Y6175978D01*
X53847272Y6259549D01*
X77364750Y6259549D01*
X77364750Y5740451D01*
X77466021Y5231326D01*
X77664672Y4751741D01*
X77953068Y4320126D01*
X78320126Y3953068D01*
X78751741Y3664672D01*
X79231326Y3466021D01*
X79740451Y3364750D01*
X80259549Y3364750D01*
X80768674Y3466021D01*
X81248259Y3664672D01*
X81679874Y3953068D01*
X82046932Y4320126D01*
X82335328Y4751741D01*
X82533979Y5231326D01*
X82621861Y5673144D01*
X86700340Y5673144D01*
X86700340Y5351078D01*
X86763172Y5035199D01*
X86886422Y4737648D01*
X87065353Y4469859D01*
X87293088Y4242124D01*
X87560877Y4063193D01*
X87858428Y3939943D01*
X88174307Y3877111D01*
X88496373Y3877111D01*
X88812252Y3939943D01*
X89109803Y4063193D01*
X89377592Y4242124D01*
X89493131Y4357663D01*
X89525582Y4313364D01*
X89617767Y4228819D01*
X89724674Y4163882D01*
X89842196Y4121049D01*
X89965816Y4101967D01*
X90090783Y4107369D01*
X92070830Y4389172D01*
X92192343Y4418849D01*
X92305730Y4471663D01*
X92406636Y4545582D01*
X92491181Y4637767D01*
X92556118Y4744674D01*
X92598951Y4862196D01*
X92618033Y4985816D01*
X92612631Y5110783D01*
X92330828Y7090830D01*
X92301151Y7212343D01*
X92248337Y7325730D01*
X92174418Y7426636D01*
X92082233Y7511181D01*
X91975326Y7576118D01*
X91857804Y7618951D01*
X91734184Y7638033D01*
X91609217Y7632631D01*
X89974823Y7400022D01*
X91151649Y8576847D01*
X91272729Y8600932D01*
X91442889Y8671414D01*
X91596028Y8773738D01*
X91726262Y8903972D01*
X91828586Y9057111D01*
X91899068Y9227271D01*
X91935000Y9407911D01*
X91935000Y9592089D01*
X91899068Y9772729D01*
X91828586Y9942889D01*
X91726262Y10096028D01*
X91596028Y10226262D01*
X91442889Y10328586D01*
X91272729Y10399068D01*
X91092089Y10435000D01*
X90907911Y10435000D01*
X90727271Y10399068D01*
X90557111Y10328586D01*
X90403972Y10226262D01*
X90273738Y10096028D01*
X90171414Y9942889D01*
X90100932Y9772729D01*
X90076847Y9651649D01*
X88227814Y7802615D01*
X88207753Y7796530D01*
X88075724Y7725958D01*
X87959999Y7630985D01*
X87936200Y7601986D01*
X87824337Y7490122D01*
X87795340Y7466325D01*
X87771542Y7437327D01*
X87771541Y7437326D01*
X87700366Y7350600D01*
X87629794Y7218570D01*
X87608118Y7147111D01*
X87591830Y7093413D01*
X87586338Y7075309D01*
X87575686Y6967163D01*
X87560877Y6961029D01*
X87293088Y6782098D01*
X87065353Y6554363D01*
X86886422Y6286574D01*
X86763172Y5989023D01*
X86700340Y5673144D01*
X82621861Y5673144D01*
X82635250Y5740451D01*
X82635250Y6259549D01*
X82533979Y6768674D01*
X82335328Y7248259D01*
X82046932Y7679874D01*
X81679874Y8046932D01*
X81248259Y8335328D01*
X80768674Y8533979D01*
X80259549Y8635250D01*
X79740451Y8635250D01*
X79231326Y8533979D01*
X78751741Y8335328D01*
X78320126Y8046932D01*
X77953068Y7679874D01*
X77664672Y7248259D01*
X77466021Y6768674D01*
X77364750Y6259549D01*
X53847272Y6259549D01*
X53746817Y6428488D01*
X53550293Y6646854D01*
X53314944Y6822684D01*
X53049814Y6949222D01*
X52899026Y6994958D01*
X52667000Y6873817D01*
X52413000Y6873817D01*
X52180974Y6994958D01*
X52030186Y6949222D01*
X51765056Y6822684D01*
X51529707Y6646854D01*
X51333183Y6428488D01*
X51275863Y6332090D01*
X51252069Y6376606D01*
X51064797Y6604797D01*
X50836606Y6792069D01*
X50576264Y6931225D01*
X50293777Y7016916D01*
X50073619Y7038600D01*
X49926381Y7038600D01*
X49706223Y7016916D01*
X49423736Y6931225D01*
X49163394Y6792069D01*
X48935203Y6604797D01*
X48747931Y6376606D01*
X48730000Y6343060D01*
X48712069Y6376606D01*
X48524797Y6604797D01*
X48296606Y6792069D01*
X48036264Y6931225D01*
X47753777Y7016916D01*
X47533619Y7038600D01*
X47386381Y7038600D01*
X47166223Y7016916D01*
X46883736Y6931225D01*
X46623394Y6792069D01*
X46395203Y6604797D01*
X46207931Y6376606D01*
X46068775Y6116264D01*
X45983084Y5833777D01*
X45954149Y5540000D01*
X13299032Y5540000D01*
X13299032Y5668756D01*
X13236200Y5984635D01*
X13112950Y6282186D01*
X12934019Y6549975D01*
X12706284Y6777710D01*
X12438495Y6956641D01*
X12140944Y7079891D01*
X11825065Y7142723D01*
X11502999Y7142723D01*
X11187120Y7079891D01*
X10889569Y6956641D01*
X10874638Y6946665D01*
X10858079Y6992346D01*
X10793329Y7099367D01*
X10708945Y7191699D01*
X10608168Y7265795D01*
X10494873Y7318806D01*
X10373413Y7348695D01*
X8393861Y7633953D01*
X8268903Y7639573D01*
X8145250Y7620707D01*
X8027654Y7578079D01*
X7920633Y7513329D01*
X7828301Y7428945D01*
X7754205Y7328168D01*
X7701194Y7214873D01*
X7671305Y7093413D01*
X7386047Y5113861D01*
X7380427Y4988903D01*
X478645Y4988903D01*
X626057Y7082144D01*
X1727053Y12220128D01*
X37765000Y12220128D01*
X37765000Y11779872D01*
X37850890Y11348075D01*
X38019369Y10941331D01*
X38263962Y10575271D01*
X38575271Y10263962D01*
X38941331Y10019369D01*
X39348075Y9850890D01*
X39779872Y9765000D01*
X40220128Y9765000D01*
X40651925Y9850890D01*
X41058669Y10019369D01*
X41424729Y10263962D01*
X41736038Y10575271D01*
X41980631Y10941331D01*
X42149110Y11348075D01*
X42235000Y11779872D01*
X42235000Y12220128D01*
X57765000Y12220128D01*
X57765000Y11779872D01*
X57850890Y11348075D01*
X58019369Y10941331D01*
X58263962Y10575271D01*
X58575271Y10263962D01*
X58941331Y10019369D01*
X59348075Y9850890D01*
X59779872Y9765000D01*
X60220128Y9765000D01*
X60651925Y9850890D01*
X61058669Y10019369D01*
X61424729Y10263962D01*
X61736038Y10575271D01*
X61980631Y10941331D01*
X62149110Y11348075D01*
X62235000Y11779872D01*
X62235000Y12220128D01*
X62149110Y12651925D01*
X61980631Y13058669D01*
X61736038Y13424729D01*
X61424729Y13736038D01*
X61058669Y13980631D01*
X60651925Y14149110D01*
X60220128Y14235000D01*
X59779872Y14235000D01*
X59348075Y14149110D01*
X58941331Y13980631D01*
X58575271Y13736038D01*
X58263962Y13424729D01*
X58019369Y13058669D01*
X57850890Y12651925D01*
X57765000Y12220128D01*
X42235000Y12220128D01*
X42149110Y12651925D01*
X41980631Y13058669D01*
X41736038Y13424729D01*
X41424729Y13736038D01*
X41058669Y13980631D01*
X40789586Y14092089D01*
X50065000Y14092089D01*
X50065000Y13907911D01*
X50100932Y13727271D01*
X50171414Y13557111D01*
X50273738Y13403972D01*
X50403972Y13273738D01*
X50557111Y13171414D01*
X50727271Y13100932D01*
X50907911Y13065000D01*
X51092089Y13065000D01*
X51272729Y13100932D01*
X51306692Y13115000D01*
X55956531Y13115000D01*
X56000000Y13110719D01*
X56043469Y13115000D01*
X56043477Y13115000D01*
X56173490Y13127805D01*
X56340313Y13178411D01*
X56494059Y13260589D01*
X56628817Y13371183D01*
X56656534Y13404956D01*
X56908923Y13657345D01*
X56942889Y13671414D01*
X57096028Y13773738D01*
X57226262Y13903972D01*
X57328586Y14057111D01*
X57399068Y14227271D01*
X57435000Y14407911D01*
X57435000Y14592089D01*
X57399068Y14772729D01*
X57328586Y14942889D01*
X57226262Y15096028D01*
X57169966Y15152324D01*
X78331929Y15152324D01*
X78548080Y14785539D01*
X79007998Y14544833D01*
X79506039Y14398478D01*
X80023062Y14352099D01*
X80539199Y14407476D01*
X81034614Y14562483D01*
X81451920Y14785539D01*
X81668071Y15152324D01*
X80000000Y16820395D01*
X78331929Y15152324D01*
X57169966Y15152324D01*
X57096028Y15226262D01*
X56942889Y15328586D01*
X56772729Y15399068D01*
X56592089Y15435000D01*
X56407911Y15435000D01*
X56227271Y15399068D01*
X56057111Y15328586D01*
X55903972Y15226262D01*
X55773738Y15096028D01*
X55671414Y14942889D01*
X55657345Y14908923D01*
X55633422Y14885000D01*
X51306692Y14885000D01*
X51272729Y14899068D01*
X51092089Y14935000D01*
X50907911Y14935000D01*
X50727271Y14899068D01*
X50557111Y14828586D01*
X50403972Y14726262D01*
X50273738Y14596028D01*
X50171414Y14442889D01*
X50100932Y14272729D01*
X50065000Y14092089D01*
X40789586Y14092089D01*
X40651925Y14149110D01*
X40220128Y14235000D01*
X39779872Y14235000D01*
X39348075Y14149110D01*
X38941331Y13980631D01*
X38575271Y13736038D01*
X38263962Y13424729D01*
X38019369Y13058669D01*
X37850890Y12651925D01*
X37765000Y12220128D01*
X1727053Y12220128D01*
X2122234Y14064304D01*
X3094667Y16670426D01*
X10496840Y16670426D01*
X10504530Y16545579D01*
X10536430Y16424631D01*
X10591312Y16312230D01*
X10667068Y16212696D01*
X10760786Y16129854D01*
X10868866Y16066887D01*
X12687338Y15234325D01*
X12805625Y15193653D01*
X12929574Y15176840D01*
X13054421Y15184530D01*
X13175369Y15216430D01*
X13287770Y15271312D01*
X13325826Y15300276D01*
X13499473Y15040395D01*
X13727208Y14812660D01*
X13994997Y14633729D01*
X14292548Y14510479D01*
X14608427Y14447647D01*
X14930493Y14447647D01*
X15246372Y14510479D01*
X15543923Y14633729D01*
X15811712Y14812660D01*
X16039447Y15040395D01*
X16218378Y15308184D01*
X16341628Y15605735D01*
X16404460Y15921614D01*
X16404460Y16243680D01*
X16341628Y16559559D01*
X16218378Y16857110D01*
X16138312Y16976938D01*
X77352099Y16976938D01*
X77407476Y16460801D01*
X77562483Y15965386D01*
X77785539Y15548080D01*
X78152324Y15331929D01*
X79820395Y17000000D01*
X80179605Y17000000D01*
X81847676Y15331929D01*
X82214461Y15548080D01*
X82455167Y16007998D01*
X82525609Y16247712D01*
X83593698Y16247712D01*
X83593698Y15925646D01*
X83656530Y15609767D01*
X83779780Y15312216D01*
X83958711Y15044427D01*
X84186446Y14816692D01*
X84454235Y14637761D01*
X84751786Y14514511D01*
X85067665Y14451679D01*
X85389731Y14451679D01*
X85705610Y14514511D01*
X86003161Y14637761D01*
X86270950Y14816692D01*
X86498685Y15044427D01*
X86670756Y15301949D01*
X86708970Y15272759D01*
X86821275Y15217681D01*
X86942167Y15185570D01*
X87067000Y15177662D01*
X87190978Y15194259D01*
X87309336Y15234724D01*
X89129259Y16064111D01*
X89237448Y16126889D01*
X89331311Y16209568D01*
X89407241Y16308970D01*
X89462319Y16421275D01*
X89494430Y16542167D01*
X89502338Y16667000D01*
X89485741Y16790978D01*
X89445276Y16909336D01*
X88615889Y18729259D01*
X88553111Y18837448D01*
X88470432Y18931311D01*
X88371030Y19007241D01*
X88258725Y19062319D01*
X88137833Y19094430D01*
X88013000Y19102338D01*
X87889022Y19085741D01*
X87770664Y19045276D01*
X85950741Y18215889D01*
X85842552Y18153111D01*
X85748689Y18070432D01*
X85672759Y17971030D01*
X85617681Y17858725D01*
X85585570Y17737833D01*
X85582122Y17683410D01*
X85389731Y17721679D01*
X85067665Y17721679D01*
X84751786Y17658847D01*
X84454235Y17535597D01*
X84186446Y17356666D01*
X83958711Y17128931D01*
X83779780Y16861142D01*
X83656530Y16563591D01*
X83593698Y16247712D01*
X82525609Y16247712D01*
X82601522Y16506039D01*
X82647901Y17023062D01*
X82592524Y17539199D01*
X82437517Y18034614D01*
X82214461Y18451920D01*
X81847676Y18668071D01*
X80179605Y17000000D01*
X79820395Y17000000D01*
X78152324Y18668071D01*
X77785539Y18451920D01*
X77544833Y17992002D01*
X77398478Y17493961D01*
X77352099Y16976938D01*
X16138312Y16976938D01*
X16039447Y17124899D01*
X15811712Y17352634D01*
X15543923Y17531565D01*
X15246372Y17654815D01*
X14930493Y17717647D01*
X14608427Y17717647D01*
X14418826Y17679933D01*
X14415470Y17734421D01*
X14383570Y17855369D01*
X14328688Y17967770D01*
X14252932Y18067304D01*
X14159214Y18150146D01*
X14051134Y18213113D01*
X12665130Y18847676D01*
X78331929Y18847676D01*
X80000000Y17179605D01*
X81668071Y18847676D01*
X81451920Y19214461D01*
X80992002Y19455167D01*
X80493961Y19601522D01*
X79976938Y19647901D01*
X79460801Y19592524D01*
X78965386Y19437517D01*
X78548080Y19214461D01*
X78331929Y18847676D01*
X12665130Y18847676D01*
X12232662Y19045675D01*
X12114375Y19086347D01*
X11990426Y19103160D01*
X11865579Y19095470D01*
X11744631Y19063570D01*
X11632230Y19008688D01*
X11532696Y18932932D01*
X11449854Y18839214D01*
X11386887Y18731134D01*
X10554325Y16912662D01*
X10513653Y16794375D01*
X10496840Y16670426D01*
X3094667Y16670426D01*
X4615775Y20746994D01*
X7982786Y26886839D01*
X16762713Y26886839D01*
X16783627Y26763516D01*
X16828199Y26646642D01*
X16894714Y26540710D01*
X16980618Y26449790D01*
X18490038Y25137672D01*
X18592029Y25065258D01*
X18706188Y25014132D01*
X18828127Y24986260D01*
X18953161Y24982713D01*
X19076484Y25003627D01*
X19127654Y25023142D01*
X19154794Y24886698D01*
X19278044Y24589147D01*
X19456975Y24321358D01*
X19684710Y24093623D01*
X19952499Y23914692D01*
X20250050Y23791442D01*
X20565929Y23728610D01*
X20887995Y23728610D01*
X21203874Y23791442D01*
X21501425Y23914692D01*
X21769214Y24093623D01*
X21996949Y24321358D01*
X22175880Y24589147D01*
X22299130Y24886698D01*
X22361962Y25202577D01*
X22361962Y25524643D01*
X22361297Y25527991D01*
X77635132Y25527991D01*
X77635132Y25205925D01*
X77697964Y24890046D01*
X77821214Y24592495D01*
X78000145Y24324706D01*
X78227880Y24096971D01*
X78495669Y23918040D01*
X78793220Y23794790D01*
X79109099Y23731958D01*
X79431165Y23731958D01*
X79747044Y23794790D01*
X80044595Y23918040D01*
X80312384Y24096971D01*
X80540119Y24324706D01*
X80719050Y24592495D01*
X80842300Y24890046D01*
X80868882Y25023685D01*
X80919980Y25004096D01*
X81043266Y24982967D01*
X81168306Y24986296D01*
X81290294Y25013955D01*
X81404541Y25064881D01*
X81506659Y25137117D01*
X83018366Y26446598D01*
X83104428Y26537368D01*
X83171129Y26643184D01*
X83215904Y26759980D01*
X83237033Y26883266D01*
X83233704Y27008306D01*
X83206045Y27130294D01*
X83155119Y27244541D01*
X83082883Y27346659D01*
X81773402Y28858366D01*
X81682632Y28944428D01*
X81576816Y29011129D01*
X81460020Y29055904D01*
X81336734Y29077033D01*
X81211694Y29073704D01*
X81089706Y29046045D01*
X80975459Y28995119D01*
X80873341Y28922883D01*
X79361634Y27613402D01*
X79275572Y27522632D01*
X79208871Y27416816D01*
X79164096Y27300020D01*
X79142967Y27176734D01*
X79146296Y27051694D01*
X79157573Y27001958D01*
X79109099Y27001958D01*
X78793220Y26939126D01*
X78495669Y26815876D01*
X78227880Y26636945D01*
X78000145Y26409210D01*
X77821214Y26141421D01*
X77697964Y25843870D01*
X77635132Y25527991D01*
X22361297Y25527991D01*
X22299130Y25840522D01*
X22175880Y26138073D01*
X21996949Y26405862D01*
X21769214Y26633597D01*
X21501425Y26812528D01*
X21203874Y26935778D01*
X20887995Y26998610D01*
X20842422Y26998610D01*
X20853740Y27048127D01*
X20857287Y27173161D01*
X20836373Y27296484D01*
X20791801Y27413358D01*
X20725286Y27519290D01*
X20639382Y27610210D01*
X19129962Y28922328D01*
X19027971Y28994742D01*
X18913812Y29045868D01*
X18791873Y29073740D01*
X18666839Y29077287D01*
X18543516Y29056373D01*
X18426642Y29011801D01*
X18320710Y28945286D01*
X18229790Y28859382D01*
X16917672Y27349962D01*
X16845258Y27247971D01*
X16794132Y27133812D01*
X16766260Y27011873D01*
X16762713Y26886839D01*
X7982786Y26886839D01*
X8006930Y26930865D01*
X10768905Y30592089D01*
X53565000Y30592089D01*
X53565000Y30407911D01*
X53600932Y30227271D01*
X53671414Y30057111D01*
X53773738Y29903972D01*
X53903972Y29773738D01*
X54057111Y29671414D01*
X54227271Y29600932D01*
X54407911Y29565000D01*
X54592089Y29565000D01*
X54772729Y29600932D01*
X54942889Y29671414D01*
X55096028Y29773738D01*
X55226262Y29903972D01*
X55250000Y29939498D01*
X55273738Y29903972D01*
X55403972Y29773738D01*
X55557111Y29671414D01*
X55727271Y29600932D01*
X55907911Y29565000D01*
X56092089Y29565000D01*
X56272729Y29600932D01*
X56442889Y29671414D01*
X56596028Y29773738D01*
X56726262Y29903972D01*
X56750000Y29939498D01*
X56773738Y29903972D01*
X56903972Y29773738D01*
X57057111Y29671414D01*
X57227271Y29600932D01*
X57407911Y29565000D01*
X57592089Y29565000D01*
X57772729Y29600932D01*
X57942889Y29671414D01*
X58096028Y29773738D01*
X58226262Y29903972D01*
X58328586Y30057111D01*
X58399068Y30227271D01*
X58435000Y30407911D01*
X58435000Y30592089D01*
X58399068Y30772729D01*
X58328586Y30942889D01*
X58226262Y31096028D01*
X58096028Y31226262D01*
X57942889Y31328586D01*
X57772729Y31399068D01*
X57651649Y31423153D01*
X57260000Y31814801D01*
X57260000Y32745994D01*
X69299061Y32745994D01*
X69299061Y32423928D01*
X69361893Y32108049D01*
X69485143Y31810498D01*
X69664074Y31542709D01*
X69891809Y31314974D01*
X70159598Y31136043D01*
X70457149Y31012793D01*
X70773028Y30949961D01*
X71095094Y30949961D01*
X71410973Y31012793D01*
X71708524Y31136043D01*
X71976313Y31314974D01*
X72204048Y31542709D01*
X72382979Y31810498D01*
X72506229Y32108049D01*
X72569061Y32423928D01*
X72569061Y32703861D01*
X72619437Y32699741D01*
X72743698Y32714063D01*
X72862778Y32752353D01*
X72972099Y32813138D01*
X73067461Y32894082D01*
X73145200Y32992076D01*
X74228617Y34673209D01*
X74285744Y34784486D01*
X74320064Y34904769D01*
X74330259Y35029437D01*
X74315937Y35153698D01*
X74277647Y35272778D01*
X74216862Y35382099D01*
X74135918Y35477461D01*
X74037924Y35555200D01*
X72356791Y36638617D01*
X72245514Y36695744D01*
X72125231Y36730064D01*
X72000563Y36740259D01*
X71876302Y36725937D01*
X71757222Y36687647D01*
X71647901Y36626862D01*
X71552539Y36545918D01*
X71474800Y36447924D01*
X70391383Y34766791D01*
X70334256Y34655514D01*
X70299936Y34535231D01*
X70289741Y34410563D01*
X70304063Y34286302D01*
X70342353Y34167222D01*
X70368404Y34120370D01*
X70159598Y34033879D01*
X69891809Y33854948D01*
X69664074Y33627213D01*
X69485143Y33359424D01*
X69361893Y33061873D01*
X69299061Y32745994D01*
X57260000Y32745994D01*
X57260000Y33685199D01*
X57314801Y33740000D01*
X61954465Y33740000D01*
X62057111Y33671414D01*
X62227271Y33600932D01*
X62407911Y33565000D01*
X62592089Y33565000D01*
X62772729Y33600932D01*
X62942889Y33671414D01*
X63096028Y33773738D01*
X63226262Y33903972D01*
X63328586Y34057111D01*
X63399068Y34227271D01*
X63435000Y34407911D01*
X63435000Y34592089D01*
X63399068Y34772729D01*
X63328586Y34942889D01*
X63226262Y35096028D01*
X63096028Y35226262D01*
X62942889Y35328586D01*
X62772729Y35399068D01*
X62592089Y35435000D01*
X62407911Y35435000D01*
X62227271Y35399068D01*
X62057111Y35328586D01*
X61954465Y35260000D01*
X57834802Y35260000D01*
X58314802Y35740000D01*
X60100114Y35740000D01*
X60138390Y35714425D01*
X60435941Y35591175D01*
X60751820Y35528343D01*
X61073886Y35528343D01*
X61389765Y35591175D01*
X61687316Y35714425D01*
X61955105Y35893356D01*
X62182840Y36121091D01*
X62361771Y36388880D01*
X62485021Y36686431D01*
X62547853Y37002310D01*
X62547853Y37324376D01*
X62485021Y37640255D01*
X62444395Y37738335D01*
X62497251Y37749305D01*
X62612413Y37798129D01*
X62715837Y37868482D01*
X62803548Y37957660D01*
X62872177Y38062236D01*
X62919084Y38178191D01*
X63483766Y40096819D01*
X63507151Y40219698D01*
X63506114Y40344777D01*
X63480695Y40467251D01*
X63431871Y40582413D01*
X63361518Y40685837D01*
X63272340Y40773548D01*
X63167764Y40842177D01*
X63051809Y40889084D01*
X61133181Y41453766D01*
X61010302Y41477151D01*
X60885223Y41476114D01*
X60762749Y41450695D01*
X60647587Y41401871D01*
X60544163Y41331518D01*
X60456452Y41242340D01*
X60387823Y41137764D01*
X60340916Y41021809D01*
X60146135Y40360000D01*
X60137323Y40360000D01*
X60100000Y40363676D01*
X60062677Y40360000D01*
X60062667Y40360000D01*
X59951014Y40349003D01*
X59807753Y40305546D01*
X59675723Y40234974D01*
X59592083Y40166332D01*
X59559999Y40140001D01*
X59536201Y40111003D01*
X53988998Y34563799D01*
X53960000Y34540001D01*
X53936202Y34511003D01*
X53936201Y34511002D01*
X53865026Y34424276D01*
X53794454Y34292246D01*
X53771800Y34217563D01*
X53755489Y34163789D01*
X53750998Y34148985D01*
X53736324Y34000000D01*
X53740001Y33962668D01*
X53740000Y31045536D01*
X53671414Y30942889D01*
X53600932Y30772729D01*
X53565000Y30592089D01*
X10768905Y30592089D01*
X11900484Y32092089D01*
X25065000Y32092089D01*
X25065000Y31907911D01*
X25100932Y31727271D01*
X25171414Y31557111D01*
X25273738Y31403972D01*
X25403972Y31273738D01*
X25557111Y31171414D01*
X25727271Y31100932D01*
X25907911Y31065000D01*
X26092089Y31065000D01*
X26272729Y31100932D01*
X26442889Y31171414D01*
X26596028Y31273738D01*
X26726262Y31403972D01*
X26828586Y31557111D01*
X26899068Y31727271D01*
X26935000Y31907911D01*
X26935000Y32092089D01*
X26899068Y32272729D01*
X26828586Y32442889D01*
X26760000Y32545535D01*
X26760000Y32715199D01*
X26935215Y32890414D01*
X27024574Y32814297D01*
X27133789Y32753321D01*
X27252801Y32714824D01*
X27377038Y32700284D01*
X27427210Y32704299D01*
X27427210Y32421530D01*
X27490042Y32105651D01*
X27613292Y31808100D01*
X27792223Y31540311D01*
X28019958Y31312576D01*
X28287747Y31133645D01*
X28585298Y31010395D01*
X28901177Y30947563D01*
X29223243Y30947563D01*
X29539122Y31010395D01*
X29836673Y31133645D01*
X30104462Y31312576D01*
X30332197Y31540311D01*
X30511128Y31808100D01*
X30634378Y32105651D01*
X30697210Y32421530D01*
X30697210Y32743596D01*
X30634378Y33059475D01*
X30511128Y33357026D01*
X30332197Y33624815D01*
X30104462Y33852550D01*
X29836673Y34031481D01*
X29630492Y34116884D01*
X29656679Y34163789D01*
X29695176Y34282801D01*
X29709716Y34407038D01*
X29699739Y34531723D01*
X29665628Y34652066D01*
X29608695Y34763442D01*
X29229833Y35353579D01*
X29233432Y35365443D01*
X29244429Y35477096D01*
X29244429Y35477105D01*
X29248105Y35514428D01*
X29244429Y35551751D01*
X29244429Y36169628D01*
X30151649Y37076847D01*
X30272729Y37100932D01*
X30442889Y37171414D01*
X30596028Y37273738D01*
X30726262Y37403972D01*
X30828586Y37557111D01*
X30899068Y37727271D01*
X30935000Y37907911D01*
X30935000Y38092089D01*
X30899068Y38272729D01*
X30828586Y38442889D01*
X30726262Y38596028D01*
X30596028Y38726262D01*
X30442889Y38828586D01*
X30272729Y38899068D01*
X30092089Y38935000D01*
X29907911Y38935000D01*
X29727271Y38899068D01*
X29557111Y38828586D01*
X29403972Y38726262D01*
X29273738Y38596028D01*
X29171414Y38442889D01*
X29100932Y38272729D01*
X29076847Y38151649D01*
X27973427Y37048228D01*
X27944429Y37024430D01*
X27920631Y36995432D01*
X27920630Y36995431D01*
X27849455Y36908705D01*
X27778883Y36776675D01*
X27763262Y36725176D01*
X27753632Y36693429D01*
X27646558Y36638695D01*
X25963537Y35558214D01*
X25865408Y35480647D01*
X25784297Y35385426D01*
X25723321Y35276211D01*
X25684824Y35157199D01*
X25670284Y35032962D01*
X25680261Y34908277D01*
X25714372Y34787934D01*
X25771305Y34676558D01*
X26084268Y34189069D01*
X25488998Y33593799D01*
X25460000Y33570001D01*
X25436202Y33541003D01*
X25436201Y33541002D01*
X25365026Y33454276D01*
X25294454Y33322246D01*
X25250998Y33178985D01*
X25236324Y33030000D01*
X25240001Y32992668D01*
X25240001Y32545536D01*
X25171414Y32442889D01*
X25100932Y32272729D01*
X25065000Y32092089D01*
X11900484Y32092089D01*
X12296054Y32616448D01*
X17383552Y37703946D01*
X20722727Y40222973D01*
X36493933Y40222973D01*
X36517103Y40100054D01*
X37078436Y38180443D01*
X37125141Y38064405D01*
X37193587Y37959710D01*
X37281143Y37870379D01*
X37384444Y37799846D01*
X37499520Y37750821D01*
X37552449Y37739739D01*
X37510725Y37639008D01*
X37447893Y37323129D01*
X37447893Y37001063D01*
X37510725Y36685184D01*
X37633975Y36387633D01*
X37812906Y36119844D01*
X38040641Y35892109D01*
X38308430Y35713178D01*
X38605981Y35589928D01*
X38921860Y35527096D01*
X39243926Y35527096D01*
X39559805Y35589928D01*
X39565022Y35592089D01*
X51065000Y35592089D01*
X51065000Y35407911D01*
X51100932Y35227271D01*
X51171414Y35057111D01*
X51273738Y34903972D01*
X51403972Y34773738D01*
X51557111Y34671414D01*
X51727271Y34600932D01*
X51907911Y34565000D01*
X52092089Y34565000D01*
X52272729Y34600932D01*
X52442889Y34671414D01*
X52596028Y34773738D01*
X52726262Y34903972D01*
X52828586Y35057111D01*
X52899068Y35227271D01*
X52923153Y35348351D01*
X53190828Y35616027D01*
X53227271Y35600932D01*
X53407911Y35565000D01*
X53592089Y35565000D01*
X53772729Y35600932D01*
X53942889Y35671414D01*
X54096028Y35773738D01*
X54226262Y35903972D01*
X54328586Y36057111D01*
X54399068Y36227271D01*
X54435000Y36407911D01*
X54435000Y36592089D01*
X54399068Y36772729D01*
X54328586Y36942889D01*
X54226262Y37096028D01*
X54096028Y37226262D01*
X53942889Y37328586D01*
X53772729Y37399068D01*
X53592089Y37435000D01*
X53407911Y37435000D01*
X53227271Y37399068D01*
X53057111Y37328586D01*
X52953046Y37259052D01*
X52851014Y37249003D01*
X52707753Y37205546D01*
X52575724Y37134974D01*
X52459999Y37040001D01*
X52436201Y37011003D01*
X51848351Y36423153D01*
X51727271Y36399068D01*
X51557111Y36328586D01*
X51403972Y36226262D01*
X51273738Y36096028D01*
X51171414Y35942889D01*
X51100932Y35772729D01*
X51065000Y35592089D01*
X39565022Y35592089D01*
X39857356Y35713178D01*
X40125145Y35892109D01*
X40352880Y36119844D01*
X40531811Y36387633D01*
X40655061Y36685184D01*
X40717893Y37001063D01*
X40717893Y37323129D01*
X40655061Y37639008D01*
X40531811Y37936559D01*
X40352880Y38204348D01*
X40125145Y38432083D01*
X40062003Y38474273D01*
X40099621Y38511143D01*
X40170154Y38614444D01*
X40219179Y38729520D01*
X40244812Y38851949D01*
X40246067Y38977027D01*
X40222897Y39099946D01*
X40049743Y39692089D01*
X45665000Y39692089D01*
X45665000Y39507911D01*
X45700932Y39327271D01*
X45771414Y39157111D01*
X45873738Y39003972D01*
X46003972Y38873738D01*
X46157111Y38771414D01*
X46327271Y38700932D01*
X46507911Y38665000D01*
X46692089Y38665000D01*
X46872729Y38700932D01*
X47042889Y38771414D01*
X47145535Y38840000D01*
X48365000Y38840000D01*
X48365000Y38568967D01*
X48427832Y38253088D01*
X48551082Y37955537D01*
X48730013Y37687748D01*
X48957748Y37460013D01*
X49225537Y37281082D01*
X49523088Y37157832D01*
X49838967Y37095000D01*
X50161033Y37095000D01*
X50476912Y37157832D01*
X50774463Y37281082D01*
X51042252Y37460013D01*
X51269987Y37687748D01*
X51448918Y37955537D01*
X51572168Y38253088D01*
X51635000Y38568967D01*
X51635000Y38891033D01*
X51572168Y39206912D01*
X51448918Y39504463D01*
X51308370Y39714809D01*
X51354494Y39739463D01*
X51451185Y39818815D01*
X51530537Y39915506D01*
X51589502Y40025820D01*
X51625812Y40145518D01*
X51638072Y40270000D01*
X51638072Y42270000D01*
X51625812Y42394482D01*
X51589502Y42514180D01*
X51530537Y42624494D01*
X51451185Y42721185D01*
X51354494Y42800537D01*
X51244180Y42859502D01*
X51124482Y42895812D01*
X51000000Y42908072D01*
X49000000Y42908072D01*
X48875518Y42895812D01*
X48755820Y42859502D01*
X48645506Y42800537D01*
X48548815Y42721185D01*
X48469463Y42624494D01*
X48410498Y42514180D01*
X48374188Y42394482D01*
X48361928Y42270000D01*
X48361928Y40360000D01*
X47145535Y40360000D01*
X47042889Y40428586D01*
X46872729Y40499068D01*
X46692089Y40535000D01*
X46507911Y40535000D01*
X46327271Y40499068D01*
X46157111Y40428586D01*
X46003972Y40326262D01*
X45873738Y40196028D01*
X45771414Y40042889D01*
X45700932Y39872729D01*
X45665000Y39692089D01*
X40049743Y39692089D01*
X39661564Y41019557D01*
X39614859Y41135595D01*
X39546413Y41240290D01*
X39458857Y41329621D01*
X39355556Y41400154D01*
X39240480Y41449179D01*
X39118051Y41474812D01*
X38992973Y41476067D01*
X38870054Y41452897D01*
X36950443Y40891564D01*
X36834405Y40844859D01*
X36729710Y40776413D01*
X36640379Y40688857D01*
X36569846Y40585556D01*
X36520821Y40470480D01*
X36495188Y40348051D01*
X36493933Y40222973D01*
X20722727Y40222973D01*
X23069135Y41993070D01*
X29253006Y45384225D01*
X35935696Y47877766D01*
X42917856Y49373943D01*
X50000000Y49872686D01*
X57082144Y49373943D01*
X57082144Y49373943D01*
G37*
X57082144Y49373943D02*
X64064304Y47877766D01*
X70746994Y45384225D01*
X76930865Y41993070D01*
X82616448Y37703946D01*
X87703946Y32616448D01*
X91993070Y26930865D01*
X95384225Y20746994D01*
X97877766Y14064304D01*
X99373943Y7082144D01*
X99863742Y127000D01*
X136258Y127000D01*
X478645Y4988903D01*
X7380427Y4988903D01*
X7399293Y4865250D01*
X7441921Y4747654D01*
X7506671Y4640633D01*
X7591055Y4548301D01*
X7691832Y4474205D01*
X7805127Y4421194D01*
X7926587Y4391305D01*
X9906139Y4106047D01*
X10031097Y4100427D01*
X10154750Y4119293D01*
X10272346Y4161921D01*
X10379367Y4226671D01*
X10471699Y4311055D01*
X10504224Y4355292D01*
X10621780Y4237736D01*
X10889569Y4058805D01*
X11187120Y3935555D01*
X11502999Y3872723D01*
X11825065Y3872723D01*
X12140944Y3935555D01*
X12438495Y4058805D01*
X12706284Y4237736D01*
X12934019Y4465471D01*
X13112950Y4733260D01*
X13236200Y5030811D01*
X13299032Y5346690D01*
X13299032Y5540000D01*
X45954149Y5540000D01*
X45983084Y5246223D01*
X46068775Y4963736D01*
X46207931Y4703394D01*
X46395203Y4475203D01*
X46403265Y4468586D01*
X46352220Y4453102D01*
X46241906Y4394137D01*
X46145215Y4314785D01*
X46065863Y4218094D01*
X46006898Y4107780D01*
X45970588Y3988082D01*
X45958328Y3863600D01*
X45958328Y2136400D01*
X45970588Y2011918D01*
X46006898Y1892220D01*
X46065863Y1781906D01*
X46145215Y1685215D01*
X46241906Y1605863D01*
X46352220Y1546898D01*
X46471918Y1510588D01*
X46596400Y1498328D01*
X48323600Y1498328D01*
X48448082Y1510588D01*
X48567780Y1546898D01*
X48678094Y1605863D01*
X48774785Y1685215D01*
X48854137Y1781906D01*
X48913102Y1892220D01*
X48928586Y1943265D01*
X48935203Y1935203D01*
X49163394Y1747931D01*
X49423736Y1608775D01*
X49706223Y1523084D01*
X49926381Y1501400D01*
X50073619Y1501400D01*
X50293777Y1523084D01*
X50576264Y1608775D01*
X50836606Y1747931D01*
X51064797Y1935203D01*
X51252069Y2163394D01*
X51270000Y2196940D01*
X51287931Y2163394D01*
X51475203Y1935203D01*
X51703394Y1747931D01*
X51963736Y1608775D01*
X52246223Y1523084D01*
X52466381Y1501400D01*
X52613619Y1501400D01*
X52833777Y1523084D01*
X53116264Y1608775D01*
X53376606Y1747931D01*
X53604797Y1935203D01*
X53792069Y2163394D01*
X53931225Y2423736D01*
X54016916Y2706223D01*
X54045851Y3000000D01*
X54016916Y3293777D01*
X53931225Y3576264D01*
X53792069Y3836606D01*
X53604797Y4064797D01*
X53376606Y4252069D01*
X53336567Y4273470D01*
X53550293Y4433146D01*
X53746817Y4651512D01*
X53896964Y4904022D01*
X53994963Y5180973D01*
X53874464Y5413000D01*
X52667000Y5413000D01*
X52667000Y5393000D01*
X52413000Y5393000D01*
X52413000Y5413000D01*
X52393000Y5413000D01*
X52393000Y5667000D01*
X52413000Y5667000D01*
X52413000Y6873817D01*
X52667000Y6873817D01*
X52667000Y5667000D01*
X53874464Y5667000D01*
X53994963Y5899027D01*
X53896964Y6175978D01*
X53847272Y6259549D01*
X77364750Y6259549D01*
X77364750Y5740451D01*
X77466021Y5231326D01*
X77664672Y4751741D01*
X77953068Y4320126D01*
X78320126Y3953068D01*
X78751741Y3664672D01*
X79231326Y3466021D01*
X79740451Y3364750D01*
X80259549Y3364750D01*
X80768674Y3466021D01*
X81248259Y3664672D01*
X81679874Y3953068D01*
X82046932Y4320126D01*
X82335328Y4751741D01*
X82533979Y5231326D01*
X82621861Y5673144D01*
X86700340Y5673144D01*
X86700340Y5351078D01*
X86763172Y5035199D01*
X86886422Y4737648D01*
X87065353Y4469859D01*
X87293088Y4242124D01*
X87560877Y4063193D01*
X87858428Y3939943D01*
X88174307Y3877111D01*
X88496373Y3877111D01*
X88812252Y3939943D01*
X89109803Y4063193D01*
X89377592Y4242124D01*
X89493131Y4357663D01*
X89525582Y4313364D01*
X89617767Y4228819D01*
X89724674Y4163882D01*
X89842196Y4121049D01*
X89965816Y4101967D01*
X90090783Y4107369D01*
X92070830Y4389172D01*
X92192343Y4418849D01*
X92305730Y4471663D01*
X92406636Y4545582D01*
X92491181Y4637767D01*
X92556118Y4744674D01*
X92598951Y4862196D01*
X92618033Y4985816D01*
X92612631Y5110783D01*
X92330828Y7090830D01*
X92301151Y7212343D01*
X92248337Y7325730D01*
X92174418Y7426636D01*
X92082233Y7511181D01*
X91975326Y7576118D01*
X91857804Y7618951D01*
X91734184Y7638033D01*
X91609217Y7632631D01*
X89974823Y7400022D01*
X91151649Y8576847D01*
X91272729Y8600932D01*
X91442889Y8671414D01*
X91596028Y8773738D01*
X91726262Y8903972D01*
X91828586Y9057111D01*
X91899068Y9227271D01*
X91935000Y9407911D01*
X91935000Y9592089D01*
X91899068Y9772729D01*
X91828586Y9942889D01*
X91726262Y10096028D01*
X91596028Y10226262D01*
X91442889Y10328586D01*
X91272729Y10399068D01*
X91092089Y10435000D01*
X90907911Y10435000D01*
X90727271Y10399068D01*
X90557111Y10328586D01*
X90403972Y10226262D01*
X90273738Y10096028D01*
X90171414Y9942889D01*
X90100932Y9772729D01*
X90076847Y9651649D01*
X88227814Y7802615D01*
X88207753Y7796530D01*
X88075724Y7725958D01*
X87959999Y7630985D01*
X87936200Y7601986D01*
X87824337Y7490122D01*
X87795340Y7466325D01*
X87771542Y7437327D01*
X87771541Y7437326D01*
X87700366Y7350600D01*
X87629794Y7218570D01*
X87608118Y7147111D01*
X87591830Y7093413D01*
X87586338Y7075309D01*
X87575686Y6967163D01*
X87560877Y6961029D01*
X87293088Y6782098D01*
X87065353Y6554363D01*
X86886422Y6286574D01*
X86763172Y5989023D01*
X86700340Y5673144D01*
X82621861Y5673144D01*
X82635250Y5740451D01*
X82635250Y6259549D01*
X82533979Y6768674D01*
X82335328Y7248259D01*
X82046932Y7679874D01*
X81679874Y8046932D01*
X81248259Y8335328D01*
X80768674Y8533979D01*
X80259549Y8635250D01*
X79740451Y8635250D01*
X79231326Y8533979D01*
X78751741Y8335328D01*
X78320126Y8046932D01*
X77953068Y7679874D01*
X77664672Y7248259D01*
X77466021Y6768674D01*
X77364750Y6259549D01*
X53847272Y6259549D01*
X53746817Y6428488D01*
X53550293Y6646854D01*
X53314944Y6822684D01*
X53049814Y6949222D01*
X52899026Y6994958D01*
X52667000Y6873817D01*
X52413000Y6873817D01*
X52180974Y6994958D01*
X52030186Y6949222D01*
X51765056Y6822684D01*
X51529707Y6646854D01*
X51333183Y6428488D01*
X51275863Y6332090D01*
X51252069Y6376606D01*
X51064797Y6604797D01*
X50836606Y6792069D01*
X50576264Y6931225D01*
X50293777Y7016916D01*
X50073619Y7038600D01*
X49926381Y7038600D01*
X49706223Y7016916D01*
X49423736Y6931225D01*
X49163394Y6792069D01*
X48935203Y6604797D01*
X48747931Y6376606D01*
X48730000Y6343060D01*
X48712069Y6376606D01*
X48524797Y6604797D01*
X48296606Y6792069D01*
X48036264Y6931225D01*
X47753777Y7016916D01*
X47533619Y7038600D01*
X47386381Y7038600D01*
X47166223Y7016916D01*
X46883736Y6931225D01*
X46623394Y6792069D01*
X46395203Y6604797D01*
X46207931Y6376606D01*
X46068775Y6116264D01*
X45983084Y5833777D01*
X45954149Y5540000D01*
X13299032Y5540000D01*
X13299032Y5668756D01*
X13236200Y5984635D01*
X13112950Y6282186D01*
X12934019Y6549975D01*
X12706284Y6777710D01*
X12438495Y6956641D01*
X12140944Y7079891D01*
X11825065Y7142723D01*
X11502999Y7142723D01*
X11187120Y7079891D01*
X10889569Y6956641D01*
X10874638Y6946665D01*
X10858079Y6992346D01*
X10793329Y7099367D01*
X10708945Y7191699D01*
X10608168Y7265795D01*
X10494873Y7318806D01*
X10373413Y7348695D01*
X8393861Y7633953D01*
X8268903Y7639573D01*
X8145250Y7620707D01*
X8027654Y7578079D01*
X7920633Y7513329D01*
X7828301Y7428945D01*
X7754205Y7328168D01*
X7701194Y7214873D01*
X7671305Y7093413D01*
X7386047Y5113861D01*
X7380427Y4988903D01*
X478645Y4988903D01*
X626057Y7082144D01*
X1727053Y12220128D01*
X37765000Y12220128D01*
X37765000Y11779872D01*
X37850890Y11348075D01*
X38019369Y10941331D01*
X38263962Y10575271D01*
X38575271Y10263962D01*
X38941331Y10019369D01*
X39348075Y9850890D01*
X39779872Y9765000D01*
X40220128Y9765000D01*
X40651925Y9850890D01*
X41058669Y10019369D01*
X41424729Y10263962D01*
X41736038Y10575271D01*
X41980631Y10941331D01*
X42149110Y11348075D01*
X42235000Y11779872D01*
X42235000Y12220128D01*
X57765000Y12220128D01*
X57765000Y11779872D01*
X57850890Y11348075D01*
X58019369Y10941331D01*
X58263962Y10575271D01*
X58575271Y10263962D01*
X58941331Y10019369D01*
X59348075Y9850890D01*
X59779872Y9765000D01*
X60220128Y9765000D01*
X60651925Y9850890D01*
X61058669Y10019369D01*
X61424729Y10263962D01*
X61736038Y10575271D01*
X61980631Y10941331D01*
X62149110Y11348075D01*
X62235000Y11779872D01*
X62235000Y12220128D01*
X62149110Y12651925D01*
X61980631Y13058669D01*
X61736038Y13424729D01*
X61424729Y13736038D01*
X61058669Y13980631D01*
X60651925Y14149110D01*
X60220128Y14235000D01*
X59779872Y14235000D01*
X59348075Y14149110D01*
X58941331Y13980631D01*
X58575271Y13736038D01*
X58263962Y13424729D01*
X58019369Y13058669D01*
X57850890Y12651925D01*
X57765000Y12220128D01*
X42235000Y12220128D01*
X42149110Y12651925D01*
X41980631Y13058669D01*
X41736038Y13424729D01*
X41424729Y13736038D01*
X41058669Y13980631D01*
X40789586Y14092089D01*
X50065000Y14092089D01*
X50065000Y13907911D01*
X50100932Y13727271D01*
X50171414Y13557111D01*
X50273738Y13403972D01*
X50403972Y13273738D01*
X50557111Y13171414D01*
X50727271Y13100932D01*
X50907911Y13065000D01*
X51092089Y13065000D01*
X51272729Y13100932D01*
X51306692Y13115000D01*
X55956531Y13115000D01*
X56000000Y13110719D01*
X56043469Y13115000D01*
X56043477Y13115000D01*
X56173490Y13127805D01*
X56340313Y13178411D01*
X56494059Y13260589D01*
X56628817Y13371183D01*
X56656534Y13404956D01*
X56908923Y13657345D01*
X56942889Y13671414D01*
X57096028Y13773738D01*
X57226262Y13903972D01*
X57328586Y14057111D01*
X57399068Y14227271D01*
X57435000Y14407911D01*
X57435000Y14592089D01*
X57399068Y14772729D01*
X57328586Y14942889D01*
X57226262Y15096028D01*
X57169966Y15152324D01*
X78331929Y15152324D01*
X78548080Y14785539D01*
X79007998Y14544833D01*
X79506039Y14398478D01*
X80023062Y14352099D01*
X80539199Y14407476D01*
X81034614Y14562483D01*
X81451920Y14785539D01*
X81668071Y15152324D01*
X80000000Y16820395D01*
X78331929Y15152324D01*
X57169966Y15152324D01*
X57096028Y15226262D01*
X56942889Y15328586D01*
X56772729Y15399068D01*
X56592089Y15435000D01*
X56407911Y15435000D01*
X56227271Y15399068D01*
X56057111Y15328586D01*
X55903972Y15226262D01*
X55773738Y15096028D01*
X55671414Y14942889D01*
X55657345Y14908923D01*
X55633422Y14885000D01*
X51306692Y14885000D01*
X51272729Y14899068D01*
X51092089Y14935000D01*
X50907911Y14935000D01*
X50727271Y14899068D01*
X50557111Y14828586D01*
X50403972Y14726262D01*
X50273738Y14596028D01*
X50171414Y14442889D01*
X50100932Y14272729D01*
X50065000Y14092089D01*
X40789586Y14092089D01*
X40651925Y14149110D01*
X40220128Y14235000D01*
X39779872Y14235000D01*
X39348075Y14149110D01*
X38941331Y13980631D01*
X38575271Y13736038D01*
X38263962Y13424729D01*
X38019369Y13058669D01*
X37850890Y12651925D01*
X37765000Y12220128D01*
X1727053Y12220128D01*
X2122234Y14064304D01*
X3094667Y16670426D01*
X10496840Y16670426D01*
X10504530Y16545579D01*
X10536430Y16424631D01*
X10591312Y16312230D01*
X10667068Y16212696D01*
X10760786Y16129854D01*
X10868866Y16066887D01*
X12687338Y15234325D01*
X12805625Y15193653D01*
X12929574Y15176840D01*
X13054421Y15184530D01*
X13175369Y15216430D01*
X13287770Y15271312D01*
X13325826Y15300276D01*
X13499473Y15040395D01*
X13727208Y14812660D01*
X13994997Y14633729D01*
X14292548Y14510479D01*
X14608427Y14447647D01*
X14930493Y14447647D01*
X15246372Y14510479D01*
X15543923Y14633729D01*
X15811712Y14812660D01*
X16039447Y15040395D01*
X16218378Y15308184D01*
X16341628Y15605735D01*
X16404460Y15921614D01*
X16404460Y16243680D01*
X16341628Y16559559D01*
X16218378Y16857110D01*
X16138312Y16976938D01*
X77352099Y16976938D01*
X77407476Y16460801D01*
X77562483Y15965386D01*
X77785539Y15548080D01*
X78152324Y15331929D01*
X79820395Y17000000D01*
X80179605Y17000000D01*
X81847676Y15331929D01*
X82214461Y15548080D01*
X82455167Y16007998D01*
X82525609Y16247712D01*
X83593698Y16247712D01*
X83593698Y15925646D01*
X83656530Y15609767D01*
X83779780Y15312216D01*
X83958711Y15044427D01*
X84186446Y14816692D01*
X84454235Y14637761D01*
X84751786Y14514511D01*
X85067665Y14451679D01*
X85389731Y14451679D01*
X85705610Y14514511D01*
X86003161Y14637761D01*
X86270950Y14816692D01*
X86498685Y15044427D01*
X86670756Y15301949D01*
X86708970Y15272759D01*
X86821275Y15217681D01*
X86942167Y15185570D01*
X87067000Y15177662D01*
X87190978Y15194259D01*
X87309336Y15234724D01*
X89129259Y16064111D01*
X89237448Y16126889D01*
X89331311Y16209568D01*
X89407241Y16308970D01*
X89462319Y16421275D01*
X89494430Y16542167D01*
X89502338Y16667000D01*
X89485741Y16790978D01*
X89445276Y16909336D01*
X88615889Y18729259D01*
X88553111Y18837448D01*
X88470432Y18931311D01*
X88371030Y19007241D01*
X88258725Y19062319D01*
X88137833Y19094430D01*
X88013000Y19102338D01*
X87889022Y19085741D01*
X87770664Y19045276D01*
X85950741Y18215889D01*
X85842552Y18153111D01*
X85748689Y18070432D01*
X85672759Y17971030D01*
X85617681Y17858725D01*
X85585570Y17737833D01*
X85582122Y17683410D01*
X85389731Y17721679D01*
X85067665Y17721679D01*
X84751786Y17658847D01*
X84454235Y17535597D01*
X84186446Y17356666D01*
X83958711Y17128931D01*
X83779780Y16861142D01*
X83656530Y16563591D01*
X83593698Y16247712D01*
X82525609Y16247712D01*
X82601522Y16506039D01*
X82647901Y17023062D01*
X82592524Y17539199D01*
X82437517Y18034614D01*
X82214461Y18451920D01*
X81847676Y18668071D01*
X80179605Y17000000D01*
X79820395Y17000000D01*
X78152324Y18668071D01*
X77785539Y18451920D01*
X77544833Y17992002D01*
X77398478Y17493961D01*
X77352099Y16976938D01*
X16138312Y16976938D01*
X16039447Y17124899D01*
X15811712Y17352634D01*
X15543923Y17531565D01*
X15246372Y17654815D01*
X14930493Y17717647D01*
X14608427Y17717647D01*
X14418826Y17679933D01*
X14415470Y17734421D01*
X14383570Y17855369D01*
X14328688Y17967770D01*
X14252932Y18067304D01*
X14159214Y18150146D01*
X14051134Y18213113D01*
X12665130Y18847676D01*
X78331929Y18847676D01*
X80000000Y17179605D01*
X81668071Y18847676D01*
X81451920Y19214461D01*
X80992002Y19455167D01*
X80493961Y19601522D01*
X79976938Y19647901D01*
X79460801Y19592524D01*
X78965386Y19437517D01*
X78548080Y19214461D01*
X78331929Y18847676D01*
X12665130Y18847676D01*
X12232662Y19045675D01*
X12114375Y19086347D01*
X11990426Y19103160D01*
X11865579Y19095470D01*
X11744631Y19063570D01*
X11632230Y19008688D01*
X11532696Y18932932D01*
X11449854Y18839214D01*
X11386887Y18731134D01*
X10554325Y16912662D01*
X10513653Y16794375D01*
X10496840Y16670426D01*
X3094667Y16670426D01*
X4615775Y20746994D01*
X7982786Y26886839D01*
X16762713Y26886839D01*
X16783627Y26763516D01*
X16828199Y26646642D01*
X16894714Y26540710D01*
X16980618Y26449790D01*
X18490038Y25137672D01*
X18592029Y25065258D01*
X18706188Y25014132D01*
X18828127Y24986260D01*
X18953161Y24982713D01*
X19076484Y25003627D01*
X19127654Y25023142D01*
X19154794Y24886698D01*
X19278044Y24589147D01*
X19456975Y24321358D01*
X19684710Y24093623D01*
X19952499Y23914692D01*
X20250050Y23791442D01*
X20565929Y23728610D01*
X20887995Y23728610D01*
X21203874Y23791442D01*
X21501425Y23914692D01*
X21769214Y24093623D01*
X21996949Y24321358D01*
X22175880Y24589147D01*
X22299130Y24886698D01*
X22361962Y25202577D01*
X22361962Y25524643D01*
X22361297Y25527991D01*
X77635132Y25527991D01*
X77635132Y25205925D01*
X77697964Y24890046D01*
X77821214Y24592495D01*
X78000145Y24324706D01*
X78227880Y24096971D01*
X78495669Y23918040D01*
X78793220Y23794790D01*
X79109099Y23731958D01*
X79431165Y23731958D01*
X79747044Y23794790D01*
X80044595Y23918040D01*
X80312384Y24096971D01*
X80540119Y24324706D01*
X80719050Y24592495D01*
X80842300Y24890046D01*
X80868882Y25023685D01*
X80919980Y25004096D01*
X81043266Y24982967D01*
X81168306Y24986296D01*
X81290294Y25013955D01*
X81404541Y25064881D01*
X81506659Y25137117D01*
X83018366Y26446598D01*
X83104428Y26537368D01*
X83171129Y26643184D01*
X83215904Y26759980D01*
X83237033Y26883266D01*
X83233704Y27008306D01*
X83206045Y27130294D01*
X83155119Y27244541D01*
X83082883Y27346659D01*
X81773402Y28858366D01*
X81682632Y28944428D01*
X81576816Y29011129D01*
X81460020Y29055904D01*
X81336734Y29077033D01*
X81211694Y29073704D01*
X81089706Y29046045D01*
X80975459Y28995119D01*
X80873341Y28922883D01*
X79361634Y27613402D01*
X79275572Y27522632D01*
X79208871Y27416816D01*
X79164096Y27300020D01*
X79142967Y27176734D01*
X79146296Y27051694D01*
X79157573Y27001958D01*
X79109099Y27001958D01*
X78793220Y26939126D01*
X78495669Y26815876D01*
X78227880Y26636945D01*
X78000145Y26409210D01*
X77821214Y26141421D01*
X77697964Y25843870D01*
X77635132Y25527991D01*
X22361297Y25527991D01*
X22299130Y25840522D01*
X22175880Y26138073D01*
X21996949Y26405862D01*
X21769214Y26633597D01*
X21501425Y26812528D01*
X21203874Y26935778D01*
X20887995Y26998610D01*
X20842422Y26998610D01*
X20853740Y27048127D01*
X20857287Y27173161D01*
X20836373Y27296484D01*
X20791801Y27413358D01*
X20725286Y27519290D01*
X20639382Y27610210D01*
X19129962Y28922328D01*
X19027971Y28994742D01*
X18913812Y29045868D01*
X18791873Y29073740D01*
X18666839Y29077287D01*
X18543516Y29056373D01*
X18426642Y29011801D01*
X18320710Y28945286D01*
X18229790Y28859382D01*
X16917672Y27349962D01*
X16845258Y27247971D01*
X16794132Y27133812D01*
X16766260Y27011873D01*
X16762713Y26886839D01*
X7982786Y26886839D01*
X8006930Y26930865D01*
X10768905Y30592089D01*
X53565000Y30592089D01*
X53565000Y30407911D01*
X53600932Y30227271D01*
X53671414Y30057111D01*
X53773738Y29903972D01*
X53903972Y29773738D01*
X54057111Y29671414D01*
X54227271Y29600932D01*
X54407911Y29565000D01*
X54592089Y29565000D01*
X54772729Y29600932D01*
X54942889Y29671414D01*
X55096028Y29773738D01*
X55226262Y29903972D01*
X55250000Y29939498D01*
X55273738Y29903972D01*
X55403972Y29773738D01*
X55557111Y29671414D01*
X55727271Y29600932D01*
X55907911Y29565000D01*
X56092089Y29565000D01*
X56272729Y29600932D01*
X56442889Y29671414D01*
X56596028Y29773738D01*
X56726262Y29903972D01*
X56750000Y29939498D01*
X56773738Y29903972D01*
X56903972Y29773738D01*
X57057111Y29671414D01*
X57227271Y29600932D01*
X57407911Y29565000D01*
X57592089Y29565000D01*
X57772729Y29600932D01*
X57942889Y29671414D01*
X58096028Y29773738D01*
X58226262Y29903972D01*
X58328586Y30057111D01*
X58399068Y30227271D01*
X58435000Y30407911D01*
X58435000Y30592089D01*
X58399068Y30772729D01*
X58328586Y30942889D01*
X58226262Y31096028D01*
X58096028Y31226262D01*
X57942889Y31328586D01*
X57772729Y31399068D01*
X57651649Y31423153D01*
X57260000Y31814801D01*
X57260000Y32745994D01*
X69299061Y32745994D01*
X69299061Y32423928D01*
X69361893Y32108049D01*
X69485143Y31810498D01*
X69664074Y31542709D01*
X69891809Y31314974D01*
X70159598Y31136043D01*
X70457149Y31012793D01*
X70773028Y30949961D01*
X71095094Y30949961D01*
X71410973Y31012793D01*
X71708524Y31136043D01*
X71976313Y31314974D01*
X72204048Y31542709D01*
X72382979Y31810498D01*
X72506229Y32108049D01*
X72569061Y32423928D01*
X72569061Y32703861D01*
X72619437Y32699741D01*
X72743698Y32714063D01*
X72862778Y32752353D01*
X72972099Y32813138D01*
X73067461Y32894082D01*
X73145200Y32992076D01*
X74228617Y34673209D01*
X74285744Y34784486D01*
X74320064Y34904769D01*
X74330259Y35029437D01*
X74315937Y35153698D01*
X74277647Y35272778D01*
X74216862Y35382099D01*
X74135918Y35477461D01*
X74037924Y35555200D01*
X72356791Y36638617D01*
X72245514Y36695744D01*
X72125231Y36730064D01*
X72000563Y36740259D01*
X71876302Y36725937D01*
X71757222Y36687647D01*
X71647901Y36626862D01*
X71552539Y36545918D01*
X71474800Y36447924D01*
X70391383Y34766791D01*
X70334256Y34655514D01*
X70299936Y34535231D01*
X70289741Y34410563D01*
X70304063Y34286302D01*
X70342353Y34167222D01*
X70368404Y34120370D01*
X70159598Y34033879D01*
X69891809Y33854948D01*
X69664074Y33627213D01*
X69485143Y33359424D01*
X69361893Y33061873D01*
X69299061Y32745994D01*
X57260000Y32745994D01*
X57260000Y33685199D01*
X57314801Y33740000D01*
X61954465Y33740000D01*
X62057111Y33671414D01*
X62227271Y33600932D01*
X62407911Y33565000D01*
X62592089Y33565000D01*
X62772729Y33600932D01*
X62942889Y33671414D01*
X63096028Y33773738D01*
X63226262Y33903972D01*
X63328586Y34057111D01*
X63399068Y34227271D01*
X63435000Y34407911D01*
X63435000Y34592089D01*
X63399068Y34772729D01*
X63328586Y34942889D01*
X63226262Y35096028D01*
X63096028Y35226262D01*
X62942889Y35328586D01*
X62772729Y35399068D01*
X62592089Y35435000D01*
X62407911Y35435000D01*
X62227271Y35399068D01*
X62057111Y35328586D01*
X61954465Y35260000D01*
X57834802Y35260000D01*
X58314802Y35740000D01*
X60100114Y35740000D01*
X60138390Y35714425D01*
X60435941Y35591175D01*
X60751820Y35528343D01*
X61073886Y35528343D01*
X61389765Y35591175D01*
X61687316Y35714425D01*
X61955105Y35893356D01*
X62182840Y36121091D01*
X62361771Y36388880D01*
X62485021Y36686431D01*
X62547853Y37002310D01*
X62547853Y37324376D01*
X62485021Y37640255D01*
X62444395Y37738335D01*
X62497251Y37749305D01*
X62612413Y37798129D01*
X62715837Y37868482D01*
X62803548Y37957660D01*
X62872177Y38062236D01*
X62919084Y38178191D01*
X63483766Y40096819D01*
X63507151Y40219698D01*
X63506114Y40344777D01*
X63480695Y40467251D01*
X63431871Y40582413D01*
X63361518Y40685837D01*
X63272340Y40773548D01*
X63167764Y40842177D01*
X63051809Y40889084D01*
X61133181Y41453766D01*
X61010302Y41477151D01*
X60885223Y41476114D01*
X60762749Y41450695D01*
X60647587Y41401871D01*
X60544163Y41331518D01*
X60456452Y41242340D01*
X60387823Y41137764D01*
X60340916Y41021809D01*
X60146135Y40360000D01*
X60137323Y40360000D01*
X60100000Y40363676D01*
X60062677Y40360000D01*
X60062667Y40360000D01*
X59951014Y40349003D01*
X59807753Y40305546D01*
X59675723Y40234974D01*
X59592083Y40166332D01*
X59559999Y40140001D01*
X59536201Y40111003D01*
X53988998Y34563799D01*
X53960000Y34540001D01*
X53936202Y34511003D01*
X53936201Y34511002D01*
X53865026Y34424276D01*
X53794454Y34292246D01*
X53771800Y34217563D01*
X53755489Y34163789D01*
X53750998Y34148985D01*
X53736324Y34000000D01*
X53740001Y33962668D01*
X53740000Y31045536D01*
X53671414Y30942889D01*
X53600932Y30772729D01*
X53565000Y30592089D01*
X10768905Y30592089D01*
X11900484Y32092089D01*
X25065000Y32092089D01*
X25065000Y31907911D01*
X25100932Y31727271D01*
X25171414Y31557111D01*
X25273738Y31403972D01*
X25403972Y31273738D01*
X25557111Y31171414D01*
X25727271Y31100932D01*
X25907911Y31065000D01*
X26092089Y31065000D01*
X26272729Y31100932D01*
X26442889Y31171414D01*
X26596028Y31273738D01*
X26726262Y31403972D01*
X26828586Y31557111D01*
X26899068Y31727271D01*
X26935000Y31907911D01*
X26935000Y32092089D01*
X26899068Y32272729D01*
X26828586Y32442889D01*
X26760000Y32545535D01*
X26760000Y32715199D01*
X26935215Y32890414D01*
X27024574Y32814297D01*
X27133789Y32753321D01*
X27252801Y32714824D01*
X27377038Y32700284D01*
X27427210Y32704299D01*
X27427210Y32421530D01*
X27490042Y32105651D01*
X27613292Y31808100D01*
X27792223Y31540311D01*
X28019958Y31312576D01*
X28287747Y31133645D01*
X28585298Y31010395D01*
X28901177Y30947563D01*
X29223243Y30947563D01*
X29539122Y31010395D01*
X29836673Y31133645D01*
X30104462Y31312576D01*
X30332197Y31540311D01*
X30511128Y31808100D01*
X30634378Y32105651D01*
X30697210Y32421530D01*
X30697210Y32743596D01*
X30634378Y33059475D01*
X30511128Y33357026D01*
X30332197Y33624815D01*
X30104462Y33852550D01*
X29836673Y34031481D01*
X29630492Y34116884D01*
X29656679Y34163789D01*
X29695176Y34282801D01*
X29709716Y34407038D01*
X29699739Y34531723D01*
X29665628Y34652066D01*
X29608695Y34763442D01*
X29229833Y35353579D01*
X29233432Y35365443D01*
X29244429Y35477096D01*
X29244429Y35477105D01*
X29248105Y35514428D01*
X29244429Y35551751D01*
X29244429Y36169628D01*
X30151649Y37076847D01*
X30272729Y37100932D01*
X30442889Y37171414D01*
X30596028Y37273738D01*
X30726262Y37403972D01*
X30828586Y37557111D01*
X30899068Y37727271D01*
X30935000Y37907911D01*
X30935000Y38092089D01*
X30899068Y38272729D01*
X30828586Y38442889D01*
X30726262Y38596028D01*
X30596028Y38726262D01*
X30442889Y38828586D01*
X30272729Y38899068D01*
X30092089Y38935000D01*
X29907911Y38935000D01*
X29727271Y38899068D01*
X29557111Y38828586D01*
X29403972Y38726262D01*
X29273738Y38596028D01*
X29171414Y38442889D01*
X29100932Y38272729D01*
X29076847Y38151649D01*
X27973427Y37048228D01*
X27944429Y37024430D01*
X27920631Y36995432D01*
X27920630Y36995431D01*
X27849455Y36908705D01*
X27778883Y36776675D01*
X27763262Y36725176D01*
X27753632Y36693429D01*
X27646558Y36638695D01*
X25963537Y35558214D01*
X25865408Y35480647D01*
X25784297Y35385426D01*
X25723321Y35276211D01*
X25684824Y35157199D01*
X25670284Y35032962D01*
X25680261Y34908277D01*
X25714372Y34787934D01*
X25771305Y34676558D01*
X26084268Y34189069D01*
X25488998Y33593799D01*
X25460000Y33570001D01*
X25436202Y33541003D01*
X25436201Y33541002D01*
X25365026Y33454276D01*
X25294454Y33322246D01*
X25250998Y33178985D01*
X25236324Y33030000D01*
X25240001Y32992668D01*
X25240001Y32545536D01*
X25171414Y32442889D01*
X25100932Y32272729D01*
X25065000Y32092089D01*
X11900484Y32092089D01*
X12296054Y32616448D01*
X17383552Y37703946D01*
X20722727Y40222973D01*
X36493933Y40222973D01*
X36517103Y40100054D01*
X37078436Y38180443D01*
X37125141Y38064405D01*
X37193587Y37959710D01*
X37281143Y37870379D01*
X37384444Y37799846D01*
X37499520Y37750821D01*
X37552449Y37739739D01*
X37510725Y37639008D01*
X37447893Y37323129D01*
X37447893Y37001063D01*
X37510725Y36685184D01*
X37633975Y36387633D01*
X37812906Y36119844D01*
X38040641Y35892109D01*
X38308430Y35713178D01*
X38605981Y35589928D01*
X38921860Y35527096D01*
X39243926Y35527096D01*
X39559805Y35589928D01*
X39565022Y35592089D01*
X51065000Y35592089D01*
X51065000Y35407911D01*
X51100932Y35227271D01*
X51171414Y35057111D01*
X51273738Y34903972D01*
X51403972Y34773738D01*
X51557111Y34671414D01*
X51727271Y34600932D01*
X51907911Y34565000D01*
X52092089Y34565000D01*
X52272729Y34600932D01*
X52442889Y34671414D01*
X52596028Y34773738D01*
X52726262Y34903972D01*
X52828586Y35057111D01*
X52899068Y35227271D01*
X52923153Y35348351D01*
X53190828Y35616027D01*
X53227271Y35600932D01*
X53407911Y35565000D01*
X53592089Y35565000D01*
X53772729Y35600932D01*
X53942889Y35671414D01*
X54096028Y35773738D01*
X54226262Y35903972D01*
X54328586Y36057111D01*
X54399068Y36227271D01*
X54435000Y36407911D01*
X54435000Y36592089D01*
X54399068Y36772729D01*
X54328586Y36942889D01*
X54226262Y37096028D01*
X54096028Y37226262D01*
X53942889Y37328586D01*
X53772729Y37399068D01*
X53592089Y37435000D01*
X53407911Y37435000D01*
X53227271Y37399068D01*
X53057111Y37328586D01*
X52953046Y37259052D01*
X52851014Y37249003D01*
X52707753Y37205546D01*
X52575724Y37134974D01*
X52459999Y37040001D01*
X52436201Y37011003D01*
X51848351Y36423153D01*
X51727271Y36399068D01*
X51557111Y36328586D01*
X51403972Y36226262D01*
X51273738Y36096028D01*
X51171414Y35942889D01*
X51100932Y35772729D01*
X51065000Y35592089D01*
X39565022Y35592089D01*
X39857356Y35713178D01*
X40125145Y35892109D01*
X40352880Y36119844D01*
X40531811Y36387633D01*
X40655061Y36685184D01*
X40717893Y37001063D01*
X40717893Y37323129D01*
X40655061Y37639008D01*
X40531811Y37936559D01*
X40352880Y38204348D01*
X40125145Y38432083D01*
X40062003Y38474273D01*
X40099621Y38511143D01*
X40170154Y38614444D01*
X40219179Y38729520D01*
X40244812Y38851949D01*
X40246067Y38977027D01*
X40222897Y39099946D01*
X40049743Y39692089D01*
X45665000Y39692089D01*
X45665000Y39507911D01*
X45700932Y39327271D01*
X45771414Y39157111D01*
X45873738Y39003972D01*
X46003972Y38873738D01*
X46157111Y38771414D01*
X46327271Y38700932D01*
X46507911Y38665000D01*
X46692089Y38665000D01*
X46872729Y38700932D01*
X47042889Y38771414D01*
X47145535Y38840000D01*
X48365000Y38840000D01*
X48365000Y38568967D01*
X48427832Y38253088D01*
X48551082Y37955537D01*
X48730013Y37687748D01*
X48957748Y37460013D01*
X49225537Y37281082D01*
X49523088Y37157832D01*
X49838967Y37095000D01*
X50161033Y37095000D01*
X50476912Y37157832D01*
X50774463Y37281082D01*
X51042252Y37460013D01*
X51269987Y37687748D01*
X51448918Y37955537D01*
X51572168Y38253088D01*
X51635000Y38568967D01*
X51635000Y38891033D01*
X51572168Y39206912D01*
X51448918Y39504463D01*
X51308370Y39714809D01*
X51354494Y39739463D01*
X51451185Y39818815D01*
X51530537Y39915506D01*
X51589502Y40025820D01*
X51625812Y40145518D01*
X51638072Y40270000D01*
X51638072Y42270000D01*
X51625812Y42394482D01*
X51589502Y42514180D01*
X51530537Y42624494D01*
X51451185Y42721185D01*
X51354494Y42800537D01*
X51244180Y42859502D01*
X51124482Y42895812D01*
X51000000Y42908072D01*
X49000000Y42908072D01*
X48875518Y42895812D01*
X48755820Y42859502D01*
X48645506Y42800537D01*
X48548815Y42721185D01*
X48469463Y42624494D01*
X48410498Y42514180D01*
X48374188Y42394482D01*
X48361928Y42270000D01*
X48361928Y40360000D01*
X47145535Y40360000D01*
X47042889Y40428586D01*
X46872729Y40499068D01*
X46692089Y40535000D01*
X46507911Y40535000D01*
X46327271Y40499068D01*
X46157111Y40428586D01*
X46003972Y40326262D01*
X45873738Y40196028D01*
X45771414Y40042889D01*
X45700932Y39872729D01*
X45665000Y39692089D01*
X40049743Y39692089D01*
X39661564Y41019557D01*
X39614859Y41135595D01*
X39546413Y41240290D01*
X39458857Y41329621D01*
X39355556Y41400154D01*
X39240480Y41449179D01*
X39118051Y41474812D01*
X38992973Y41476067D01*
X38870054Y41452897D01*
X36950443Y40891564D01*
X36834405Y40844859D01*
X36729710Y40776413D01*
X36640379Y40688857D01*
X36569846Y40585556D01*
X36520821Y40470480D01*
X36495188Y40348051D01*
X36493933Y40222973D01*
X20722727Y40222973D01*
X23069135Y41993070D01*
X29253006Y45384225D01*
X35935696Y47877766D01*
X42917856Y49373943D01*
X50000000Y49872686D01*
X57082144Y49373943D01*
M02*
