G04 #@! TF.GenerationSoftware,KiCad,Pcbnew,5.0.0-rc2-dev-unknown*
G04 #@! TF.CreationDate,2018-06-18T21:32:58+02:00*
G04 #@! TF.ProjectId,thermometer-bausatz,746865726D6F6D657465722D62617573,rev?*
G04 #@! TF.SameCoordinates,PX3938700PY9896800*
G04 #@! TF.FileFunction,Soldermask,Bot*
G04 #@! TF.FilePolarity,Negative*
%FSLAX46Y46*%
G04 Gerber Fmt 4.6, Leading zero omitted, Abs format (unit mm)*
G04 Created by KiCad (PCBNEW 5.0.0-rc2-dev-unknown) date Mon Jun 18 21:32:58 2018*
%MOMM*%
%LPD*%
G01*
G04 APERTURE LIST*
%ADD10R,1.650000X1.900000*%
%ADD11C,2.400000*%
%ADD12C,0.100000*%
%ADD13R,2.400000X2.400000*%
%ADD14C,4.400500*%
%ADD15R,2.127200X2.127200*%
%ADD16O,2.127200X2.127200*%
%ADD17R,3.170000X1.670000*%
%ADD18R,1.670000X3.170000*%
%ADD19R,1.000000X1.900000*%
%ADD20C,1.000000*%
%ADD21R,1.900000X1.650000*%
%ADD22C,1.700000*%
%ADD23R,1.200100X1.200100*%
G04 APERTURE END LIST*
D10*
X59500000Y29250000D03*
X59500000Y31750000D03*
D11*
X9150000Y5870000D03*
D12*
G36*
X10166577Y4511114D02*
X7791114Y4853423D01*
X8133423Y7228886D01*
X10508886Y6886577D01*
X10166577Y4511114D01*
X10166577Y4511114D01*
G37*
D11*
X11664032Y5507723D03*
X18810000Y27030000D03*
D12*
G36*
X18928381Y25337078D02*
X17117078Y26911619D01*
X18691619Y28722922D01*
X20502922Y27148381D01*
X18928381Y25337078D01*
X18928381Y25337078D01*
G37*
D11*
X20726962Y25363610D03*
X27690000Y34720000D03*
D12*
G36*
X27328475Y33061899D02*
X26031899Y35081525D01*
X28051525Y36378101D01*
X29348101Y34358475D01*
X27328475Y33061899D01*
X27328475Y33061899D01*
G37*
D11*
X29062210Y32582563D03*
X38370000Y39600000D03*
D12*
G36*
X37555034Y38111434D02*
X36881434Y40414966D01*
X39184966Y41088566D01*
X39858566Y38785034D01*
X37555034Y38111434D01*
X37555034Y38111434D01*
G37*
D11*
X39082893Y37162096D03*
D13*
X50000000Y41270000D03*
D11*
X50000000Y38730000D03*
X61630000Y39600000D03*
D12*
G36*
X60140013Y38787633D02*
X60817633Y41089987D01*
X63119987Y40412367D01*
X62442367Y38110013D01*
X60140013Y38787633D01*
X60140013Y38787633D01*
G37*
D11*
X60912853Y37163343D03*
X72310000Y34720000D03*
D12*
G36*
X70651270Y34361370D02*
X71951370Y36378730D01*
X73968730Y35078630D01*
X72668630Y33061270D01*
X70651270Y34361370D01*
X70651270Y34361370D01*
G37*
D11*
X70934061Y32584961D03*
X81190000Y27030000D03*
D12*
G36*
X79497287Y27151335D02*
X81311335Y28722713D01*
X82882713Y26908665D01*
X81068665Y25337287D01*
X79497287Y27151335D01*
X79497287Y27151335D01*
G37*
D11*
X79270132Y25366958D03*
X87540000Y17140000D03*
D12*
G36*
X85950415Y17734322D02*
X88134322Y18729585D01*
X89129585Y16545678D01*
X86945678Y15550415D01*
X85950415Y17734322D01*
X85950415Y17734322D01*
G37*
D11*
X85228698Y16086679D03*
X90850000Y5870000D03*
D12*
G36*
X89492890Y6888947D02*
X91868947Y7227110D01*
X92207110Y4851053D01*
X89831053Y4512890D01*
X89492890Y6888947D01*
X89492890Y6888947D01*
G37*
D11*
X88335340Y5512111D03*
D14*
X80000000Y6000000D03*
X80000000Y17000000D03*
D15*
X47460000Y3000000D03*
D16*
X47460000Y5540000D03*
X50000000Y3000000D03*
X50000000Y5540000D03*
X52540000Y3000000D03*
X52540000Y5540000D03*
D17*
X43000000Y27460000D03*
X43000000Y30000000D03*
D18*
X20540000Y14000000D03*
X18000000Y14000000D03*
D19*
X56810000Y27600000D03*
X55540000Y27600000D03*
X54270000Y27600000D03*
X53000000Y27600000D03*
X51730000Y27600000D03*
X50460000Y27600000D03*
X49190000Y27600000D03*
X49190000Y33000000D03*
X50460000Y33000000D03*
X51730000Y33000000D03*
X53000000Y33000000D03*
X54270000Y33000000D03*
X55540000Y33000000D03*
X56810000Y33000000D03*
D11*
X12460000Y17140000D03*
D12*
G36*
X13051546Y15549380D02*
X10869380Y16548454D01*
X11868454Y18730620D01*
X14050620Y17731546D01*
X13051546Y15549380D01*
X13051546Y15549380D01*
G37*
D11*
X14769460Y16082647D03*
D20*
X47000000Y33500000D03*
X66000000Y27000000D03*
X51500000Y18500000D03*
X57000000Y21500000D03*
X96000000Y3500000D03*
X4000000Y4000000D03*
X50000000Y46000000D03*
X33000000Y33500000D03*
D21*
X67750000Y25000000D03*
X70250000Y25000000D03*
D22*
X65954594Y33045406D03*
D12*
G36*
X67227386Y32974695D02*
X66025305Y31772614D01*
X64681802Y33116117D01*
X65883883Y34318198D01*
X67227386Y32974695D01*
X67227386Y32974695D01*
G37*
D22*
X64045406Y34954594D03*
D12*
G36*
X65318198Y34883883D02*
X64116117Y33681802D01*
X62772614Y35025305D01*
X63974695Y36227386D01*
X65318198Y34883883D01*
X65318198Y34883883D01*
G37*
D23*
X67999240Y28050000D03*
X67999240Y29950000D03*
X69998220Y29000000D03*
D20*
X70000000Y27000000D03*
X59500000Y33500000D03*
X55000000Y10000000D03*
X65500000Y21500000D03*
M02*
