M48
;DRILL file {KiCad (5.0.0-rc2-117-g8a26393)} date Tue Jun 19 09:49:34 2018
;FORMAT={3:3/ absolute / metric / suppress leading zeros}
FMAT,2
METRIC,TZ
T1C0.300
T2C0.400
T3C1.001
T4C1.016
T5C1.501
%
G90
G05
M71
T1
X65500Y21500
X57000Y21500
X70000Y27000
X55000Y10000
X47000Y33500
X66000Y27000
X33000Y33500
X4000Y4000
X51500Y18500
X50000Y46000
X96000Y3500
X59500Y33500
T2
X20540Y16460
X26000Y32000
X30000Y38000
X46000Y27500
X46600Y39600
X51000Y14000
X52000Y35500
X53500Y36500
X54500Y30500
X56000Y30500
X56500Y14500
X57500Y30500
X62500Y34500
X91000Y9500
T3
X9150Y5870
X11664Y5508
X70934Y32585
X72310Y34720
X12460Y17140
X14769Y16083
X38370Y39600
X39083Y37162
X60913Y37163
X61630Y39600
X18810Y27030
X20727Y25364
X88335Y5512
X90850Y5870
X27690Y34720
X29062Y32583
X79270Y25367
X81190Y27030
X50000Y41270
X50000Y38730
X85229Y16087
X87540Y17140
T4
X47460Y5540
X47460Y3000
X50000Y5540
X50000Y3000
X52540Y5540
X52540Y3000
T5
X80000Y17000
X80000Y6000
T0
M30
